<?xml version="1.0" encoding="utf-8"?>
<!-- Generator: Adobe Illustrator 24.0.2, SVG Export Plug-In . SVG Version: 6.00 Build 0)  -->
<svg version="1.1" id="Layer_1" xmlns="http://www.w3.org/2000/svg" xmlns:xlink="http://www.w3.org/1999/xlink" x="0px" y="0px"
	 viewBox="0 0 24 24" style="enable-background:new 0 0 24 24;" xml:space="preserve">
<style type="text/css">
	.st0{fill:#A10038;}
	.st1{fill:none;}
	.st2{fill:#DDDDDD;}
</style>
<circle class="st0" cx="12" cy="12" r="12"/>
<path class="st1" d="M0,0h24v24H0V0z"/>
<path class="st2" d="M16.9,5.4H14C13.7,4.6,12.9,4,12,4s-1.7,0.6-2,1.4H7.1C6.3,5.4,5.7,6,5.7,6.8v9.8c0,0.8,0.6,1.4,1.4,1.4h9.8
	c0.8,0,1.4-0.6,1.4-1.4V6.8C18.3,6,17.6,5.4,16.9,5.4z M12,5.4c0.4,0,0.7,0.3,0.7,0.7c0,0.4-0.3,0.7-0.7,0.7s-0.7-0.3-0.7-0.7
	S11.6,5.4,12,5.4z M12.7,15.2H9.2c-0.4,0-0.7-0.3-0.7-0.7c0-0.4,0.3-0.7,0.7-0.7h3.5c0.4,0,0.7,0.3,0.7,0.7
	C13.4,14.9,13.1,15.2,12.7,15.2z M14.8,12.4H9.2c-0.4,0-0.7-0.3-0.7-0.7S8.8,11,9.2,11h5.6c0.4,0,0.7,0.3,0.7,0.7
	S15.2,12.4,14.8,12.4z M14.8,9.6H9.2c-0.4,0-0.7-0.3-0.7-0.7s0.3-0.7,0.7-0.7h5.6c0.4,0,0.7,0.3,0.7,0.7S15.2,9.6,14.8,9.6z"/>
</svg>
